<?xml version="1.0" encoding="UTF-8"?>
<svg width="29.787" height="23.826" version="1.1" viewBox="0 0 29.787 23.826" xmlns="http://www.w3.org/2000/svg" xmlns:cc="http://creativecommons.org/ns#" xmlns:dc="http://purl.org/dc/elements/1.1/" xmlns:rdf="http://www.w3.org/1999/02/22-rdf-syntax-ns#">
 <metadata>
  <rdf:RDF>
   <cc:Work rdf:about="">
    <dc:format>image/svg+xml</dc:format>
    <dc:type rdf:resource="http://purl.org/dc/dcmitype/StillImage"/>
    <dc:title/>
   </cc:Work>
  </rdf:RDF>
 </metadata>
 <path d="m12.981 23.803-2.8388-0.82373c-0.29785-0.08377-0.46538-0.39558-0.38162-0.69342l6.3525-21.882c0.08377-0.29785 0.39558-0.46538 0.69342-0.38162l2.8388 0.82373c0.29785 0.083769 0.46538 0.39558 0.38162 0.69342l-6.3525 21.882c-0.08842 0.29785-0.39558 0.47004-0.69342 0.38162zm-5.3054-5.2216 2.0244-2.1594c0.21408-0.22804 0.20012-0.59104-0.037231-0.80046l-4.2164-3.7091 4.2164-3.7091c0.23735-0.20942 0.25596-0.57242 0.037231-0.80046l-2.0244-2.1594c-0.20942-0.22338-0.56312-0.23735-0.79115-0.023269l-6.7062 6.2827c-0.23735 0.21873-0.23735 0.59569 0 0.81442l6.7062 6.2873c0.22804 0.21408 0.58173 0.20477 0.79115-0.02327zm15.227 0.02792 6.7062-6.2873c0.23735-0.21873 0.23735-0.59569 0-0.81442l-6.7062-6.292c-0.22338-0.20942-0.57708-0.20012-0.79115 0.023269l-2.0244 2.1594c-0.21408 0.22804-0.20012 0.59104 0.03723 0.80046l4.2164 3.7138-4.2164 3.7091c-0.23735 0.20942-0.25596 0.57242-0.03723 0.80046l2.0244 2.1594c0.20942 0.22804 0.56312 0.23735 0.79115 0.02792z" stroke-width=".046538"/>
</svg>
