<?xml version="1.0" encoding="UTF-8" standalone="no"?>
<svg
   xmlns:dc="http://purl.org/dc/elements/1.1/"
   xmlns:cc="http://creativecommons.org/ns#"
   xmlns:rdf="http://www.w3.org/1999/02/22-rdf-syntax-ns#"
   xmlns:svg="http://www.w3.org/2000/svg"
   xmlns="http://www.w3.org/2000/svg"
   height="17.800657"
   width="22.324192"
   id="svg4"
   version="1.1"
   viewBox="0 0 22.324192 17.800657">
  <metadata
     id="metadata10">
    <rdf:RDF>
      <cc:Work
         rdf:about="">
        <dc:format>image/svg+xml</dc:format>
        <dc:type
           rdf:resource="http://purl.org/dc/dcmitype/StillImage" />
        <dc:title></dc:title>
      </cc:Work>
    </rdf:RDF>
  </metadata>
  <defs
     id="defs8" />
  <path
     style="fill:#666666;fill-opacity:1;stroke-width:0.03488443"
     id="path2"
     d="M 17.864642,6.6590049 17.578589,7.1578521 C 17.473936,7.3427396 17.250676,7.4194853 17.051835,7.346228 16.640198,7.1927366 16.263447,6.9729647 15.932045,6.6973777 15.771576,6.5648169 15.729715,6.3310913 15.834368,6.1496922 L 16.12042,5.650845 C 15.879718,5.3717696 15.691342,5.0473444 15.565758,4.6950117 h -0.575593 c -0.209306,0 -0.390705,-0.150003 -0.42559,-0.3593096 -0.06977,-0.4186131 -0.07326,-0.8581568 0,-1.2942121 0.03489,-0.2093066 0.216284,-0.362798 0.42559,-0.362798 h 0.575593 C 15.691342,2.3263593 15.879718,2.0019341 16.12042,1.7228587 L 15.834368,1.2240114 c -0.104653,-0.181399 -0.06628,-0.41512464 0.09768,-0.54768545 0.331402,-0.27558696 0.711642,-0.49535884 1.11979,-0.64885031 0.198841,-0.07325729 0.422101,0.003488 0.526754,0.1883759 l 0.286053,0.49884727 c 0.366286,-0.0662804 0.73955,-0.0662804 1.105836,0 L 19.25653,0.21585154 c 0.104654,-0.18488746 0.327914,-0.26163319 0.526755,-0.1883759 0.411636,0.15349147 0.788388,0.37326335 1.11979,0.64885031 0.160468,0.13256081 0.20233,0.36628645 0.09768,0.54768545 l -0.286053,0.4988473 c 0.240703,0.2790754 0.429079,0.6035006 0.554663,0.9558333 h 0.575593 c 0.209306,0 0.390705,0.150003 0.42559,0.3593095 0.06977,0.4186131 0.07326,0.8581569 0,1.2942122 -0.03488,0.2093066 -0.216284,0.362798 -0.42559,0.362798 h -0.575593 c -0.125584,0.3523327 -0.31396,0.6767579 -0.554663,0.9558333 l 0.286053,0.4988472 c 0.104653,0.1813991 0.06628,0.4151247 -0.09768,0.5476855 -0.331402,0.275587 -0.711642,0.4953589 -1.11979,0.6488503 C 19.584444,7.419485 19.361184,7.342738 19.25653,7.1578521 L 18.970478,6.6590049 c -0.362798,0.06628 -0.73955,0.06628 -1.105836,0 z M 17.498355,4.6078007 c 1.343051,1.0325789 2.874477,-0.4988473 1.841898,-1.8418977 -1.34305,-1.0360674 -2.874477,0.4988473 -1.841898,1.8418977 z m -4.022174,5.3687126 1.175605,0.5860587 c 0.352333,0.202329 0.505824,0.631408 0.366287,1.015136 -0.310472,0.844204 -0.920949,1.618638 -1.486077,2.295396 -0.258145,0.310471 -0.704665,0.387217 -1.056998,0.184887 L 11.459861,13.471933 C 10.90171,13.949849 10.25286,14.33009 9.5447062,14.577769 v 1.172117 c 0,0.404659 -0.2895407,0.753503 -0.6872231,0.823272 -0.8581569,0.146515 -1.7581751,0.153492 -2.6477279,0 C 5.8085843,16.503389 5.5120667,16.158033 5.5120667,15.749886 V 14.577769 C 4.8039129,14.326601 4.1550626,13.949849 3.5969118,13.471933 L 2.581775,14.054503 C 2.2329307,14.256832 1.7829217,14.180087 1.5247769,13.869615 0.95964925,13.192857 0.36312559,12.418423 0.0526542,11.577708 -0.0868835,11.197468 0.06660797,10.76839 0.41894067,10.562572 L 1.580592,9.9765133 c -0.1360493,-0.7290841 -0.1360493,-1.4790992 0,-2.2116722 L 0.41894067,7.1752943 C 0.06660797,6.9729647 -0.09037194,6.5438863 0.0526542,6.163646 0.36312559,5.3194429 0.95964925,4.5450087 1.5247769,3.8682508 1.7829217,3.5577795 2.2294423,3.4810337 2.581775,3.6833634 L 3.5969118,4.2694217 C 4.1550626,3.7915051 4.8039129,3.4112649 5.5120667,3.1635855 V 1.9879803 c 0,-0.4011708 0.2860523,-0.7500151 0.6837347,-0.819784 0.8581569,-0.1465145 1.7616635,-0.1534914 2.6512163,-0.00349 0.4011709,0.069769 0.6976885,0.4151247 0.6976885,0.8232724 V 3.160097 C 10.25286,3.4112649 10.90171,3.7880167 11.459861,4.2659333 L 12.474998,3.679875 c 0.348844,-0.2023297 0.798853,-0.125584 1.056998,0.1848874 0.565128,0.6767579 1.158163,1.4511921 1.468634,2.2953952 0.139538,0.3802402 0.0035,0.8093186 -0.348844,1.0151367 l -1.175605,0.5860584 c 0.136049,0.7325729 0.136049,1.4825881 0,2.2151606 z M 9.3737725,10.712575 C 11.438931,8.0264743 8.3725896,4.9601334 5.6864888,7.0252913 3.6213309,9.711392 6.6876718,12.777733 9.3737725,10.712575 Z m 8.4908695,6.373384 -0.286053,0.498847 c -0.104653,0.184888 -0.327913,0.261634 -0.526754,0.188376 -0.411637,-0.153491 -0.788388,-0.373263 -1.11979,-0.64885 -0.160469,-0.132561 -0.20233,-0.366286 -0.09768,-0.547685 l 0.286052,-0.498848 c -0.240702,-0.279075 -0.429078,-0.6035 -0.554662,-0.955833 h -0.575593 c -0.209306,0 -0.390705,-0.150003 -0.42559,-0.35931 -0.06977,-0.418613 -0.07326,-0.858156 0,-1.294212 0.03489,-0.209306 0.216284,-0.362798 0.42559,-0.362798 h 0.575593 c 0.125584,-0.352332 0.31396,-0.676758 0.554662,-0.955833 l -0.286052,-0.498847 c -0.104653,-0.181399 -0.06628,-0.415125 0.09768,-0.547686 0.331402,-0.275587 0.711642,-0.495359 1.11979,-0.64885 0.198841,-0.07326 0.422101,0.0035 0.526754,0.188376 l 0.286053,0.498847 c 0.366286,-0.06628 0.73955,-0.06628 1.105836,0 l 0.286052,-0.498847 c 0.104654,-0.184888 0.327914,-0.261633 0.526755,-0.188376 0.411636,0.153491 0.788388,0.373263 1.11979,0.64885 0.160468,0.132561 0.20233,0.366287 0.09768,0.547686 l -0.286053,0.498847 c 0.240703,0.279075 0.429079,0.603501 0.554663,0.955833 h 0.575593 c 0.209306,0 0.390705,0.150003 0.42559,0.35931 0.06977,0.418613 0.07326,0.858157 0,1.294212 -0.03488,0.209307 -0.216284,0.362798 -0.42559,0.362798 h -0.575593 c -0.125584,0.352333 -0.31396,0.676758 -0.554663,0.955833 l 0.286053,0.498848 c 0.104653,0.181399 0.06628,0.415124 -0.09768,0.547685 -0.331402,0.275587 -0.711642,0.495359 -1.11979,0.64885 -0.198841,0.07326 -0.422101,-0.0035 -0.526755,-0.188376 l -0.286052,-0.498847 c -0.362798,0.06628 -0.73955,0.06628 -1.105836,0 z m -0.366287,-2.054692 c 1.343051,1.032579 2.874477,-0.498848 1.841898,-1.841898 -1.34305,-1.032579 -2.874477,0.498847 -1.841898,1.841898 z" />
</svg>
