<?xml version="1.0" encoding="UTF-8" standalone="no"?>
<svg
   xmlns:dc="http://purl.org/dc/elements/1.1/"
   xmlns:cc="http://creativecommons.org/ns#"
   xmlns:rdf="http://www.w3.org/1999/02/22-rdf-syntax-ns#"
   xmlns:svg="http://www.w3.org/2000/svg"
   xmlns="http://www.w3.org/2000/svg"
   height="15.186441"
   width="20.248589"
   id="svg4"
   version="1.1"
   viewBox="0 0 20.248589 15.186441">
  <metadata
     id="metadata10">
    <rdf:RDF>
      <cc:Work
         rdf:about="">
        <dc:format>image/svg+xml</dc:format>
        <dc:type
           rdf:resource="http://purl.org/dc/dcmitype/StillImage" />
        <dc:title></dc:title>
      </cc:Work>
    </rdf:RDF>
  </metadata>
  <defs
     id="defs8" />
  <path
     style="fill:#666666;fill-opacity:1;stroke-width:0.03954802"
     id="path2"
     d="m 19.864972,5.014689 c 0.154237,-0.122599 0.383616,-0.0079 0.383616,0.185876 v 8.087571 c 0,1.048022 -0.850283,1.898305 -1.898306,1.898305 H 1.8983051 C 0.85028249,15.186441 0,14.336158 0,13.288136 V 5.20452 C 0,5.00678 0.22542373,4.896045 0.38361582,5.018644 1.2694915,5.70678 2.4440678,6.580791 6.4779661,9.511299 c 0.8344633,0.60904 2.2423729,1.890396 3.6463279,1.882486 1.411864,0.01187 2.847457,-1.297175 3.650282,-1.882486 4.033899,-2.930508 5.20452,-3.808474 6.090396,-4.49661 z m -9.740678,5.109605 c 0.917514,0.01582 2.238418,-1.154802 2.902825,-1.637288 5.248022,-3.808475 5.647457,-4.140678 6.857627,-5.089831 0.229378,-0.177966 0.363842,-0.454802 0.363842,-0.747457 V 1.898305 C 20.248588,0.850282 19.398305,0 18.350282,0 H 1.8983051 C 0.85028249,0 0,0.850282 0,1.898305 V 2.649718 C 0,2.942373 0.13446328,3.215254 0.36384181,3.397175 1.5740113,4.342373 1.9734463,4.678531 7.2214689,8.487006 c 0.6644068,0.482486 1.9853108,1.653107 2.9028251,1.637288 z" />
</svg>
