<?xml version="1.0" encoding="UTF-8"?>
<svg width="20.173" height="20.05" version="1.1" viewBox="0 0 20.173 20.05" xmlns="http://www.w3.org/2000/svg" xmlns:cc="http://creativecommons.org/ns#" xmlns:dc="http://purl.org/dc/elements/1.1/" xmlns:rdf="http://www.w3.org/1999/02/22-rdf-syntax-ns#">
 <metadata>
  <rdf:RDF>
   <cc:Work rdf:about="">
    <dc:format>image/svg+xml</dc:format>
    <dc:type rdf:resource="http://purl.org/dc/dcmitype/StillImage"/>
    <dc:title/>
   </cc:Work>
  </rdf:RDF>
 </metadata>
 <ellipse cx="10.11" cy="10.875" rx="6.6267" ry="9.3453" fill="#666"/>
 <path d="m20.172 10.086c0-5.5719-4.5145-10.086-10.086-10.086-5.5719 0-10.086 4.5145-10.086 10.086 0 5.0343 3.6885 9.2071 8.5104 9.9644v-7.0487h-2.5623v-2.9157h2.5623v-2.2223c0-2.5277 1.5048-3.9239 3.8097-3.9239 1.1038 0 2.2581 0.19685 2.2581 0.19685v2.4809h-1.2722c-1.2527 0-1.6435 0.77763-1.6435 1.5752v1.8932h2.7974l-0.44738 2.9157h-2.35v7.0487c4.822-0.7573 8.5104-4.9301 8.5104-9.9644z" stroke-width=".040671"/>
</svg>
