<?xml version="1.0" encoding="UTF-8" standalone="no"?>
<svg
   xmlns:dc="http://purl.org/dc/elements/1.1/"
   xmlns:cc="http://creativecommons.org/ns#"
   xmlns:rdf="http://www.w3.org/1999/02/22-rdf-syntax-ns#"
   xmlns:svg="http://www.w3.org/2000/svg"
   xmlns="http://www.w3.org/2000/svg"
   height="15.186441"
   width="20.248589"
   id="svg4"
   version="1.1"
   viewBox="0 0 20.248589 15.186441">
  <metadata
     id="metadata10">
    <rdf:RDF>
      <cc:Work
         rdf:about="">
        <dc:format>image/svg+xml</dc:format>
        <dc:type
           rdf:resource="http://purl.org/dc/dcmitype/StillImage" />
        <dc:title></dc:title>
      </cc:Work>
    </rdf:RDF>
  </metadata>
  <defs
     id="defs8" />
  <path
     style="fill:#666666;fill-opacity:1;stroke-width:0.03954802"
     id="path2"
     d="m 19.299435,0 h -0.316384 v 0.79096 c 0,0.261017 -0.213559,0.474577 -0.474576,0.474577 h -1.581921 c -0.261017,0 -0.474577,-0.21356 -0.474577,-0.474577 V 0 H 3.7966102 v 0.79096 c 0,0.261017 -0.2135594,0.474577 -0.4745763,0.474577 H 1.740113 c -0.261017,0 -0.4745763,-0.21356 -0.4745763,-0.474577 V 0 H 0.94915254 C 0.42316384,0 0,0.423164 0,0.949153 v 13.288135 c 0,0.525989 0.42316384,0.949153 0.94915254,0.949153 H 1.2655367 V 14.39548 c 0,-0.261017 0.2135593,-0.474576 0.4745763,-0.474576 h 1.5819209 c 0.2610169,0 0.4745763,0.213559 0.4745763,0.474576 v 0.790961 H 16.451977 V 14.39548 c 0,-0.261017 0.21356,-0.474576 0.474577,-0.474576 h 1.581921 c 0.261017,0 0.474576,0.213559 0.474576,0.474576 v 0.790961 h 0.316384 c 0.525989,0 0.949153,-0.423164 0.949153,-0.949153 V 0.949153 C 20.248588,0.423164 19.825424,0 19.299435,0 Z M 3.7966102,12.180791 c 0,0.261017 -0.2135594,0.474576 -0.4745763,0.474576 H 1.740113 c -0.261017,0 -0.4745763,-0.213559 -0.4745763,-0.474576 V 10.59887 c 0,-0.261017 0.2135593,-0.474576 0.4745763,-0.474576 h 1.5819209 c 0.2610169,0 0.4745763,0.213559 0.4745763,0.474576 z m 0,-3.79661 c 0,0.261017 -0.2135594,0.474576 -0.4745763,0.474576 H 1.740113 c -0.261017,0 -0.4745763,-0.213559 -0.4745763,-0.474576 V 6.80226 c 0,-0.261017 0.2135593,-0.474576 0.4745763,-0.474576 h 1.5819209 c 0.2610169,0 0.4745763,0.213559 0.4745763,0.474576 z m 0,-3.79661 c 0,0.261017 -0.2135594,0.474576 -0.4745763,0.474576 H 1.740113 c -0.261017,0 -0.4745763,-0.213559 -0.4745763,-0.474576 V 3.00565 c 0,-0.261017 0.2135593,-0.474577 0.4745763,-0.474577 h 1.5819209 c 0.2610169,0 0.4745763,0.21356 0.4745763,0.474577 z m 10.7570618,8.225988 c 0,0.261017 -0.213559,0.474577 -0.474576,0.474577 H 6.1694915 c -0.2610169,0 -0.4745762,-0.21356 -0.4745762,-0.474577 v -3.79661 c 0,-0.261017 0.2135593,-0.474576 0.4745762,-0.474576 h 7.9096045 c 0.261017,0 0.474576,0.213559 0.474576,0.474576 z m 0,-6.644067 c 0,0.261016 -0.213559,0.474576 -0.474576,0.474576 H 6.1694915 c -0.2610169,0 -0.4745762,-0.21356 -0.4745762,-0.474576 V 2.372881 c 0,-0.261017 0.2135593,-0.474576 0.4745762,-0.474576 h 7.9096045 c 0.261017,0 0.474576,0.213559 0.474576,0.474576 z m 4.429379,6.011299 c 0,0.261017 -0.213559,0.474576 -0.474576,0.474576 h -1.581921 c -0.261017,0 -0.474577,-0.213559 -0.474577,-0.474576 V 10.59887 c 0,-0.261017 0.21356,-0.474576 0.474577,-0.474576 h 1.581921 c 0.261017,0 0.474576,0.213559 0.474576,0.474576 z m 0,-3.79661 c 0,0.261017 -0.213559,0.474576 -0.474576,0.474576 h -1.581921 c -0.261017,0 -0.474577,-0.213559 -0.474577,-0.474576 V 6.80226 c 0,-0.261017 0.21356,-0.474576 0.474577,-0.474576 h 1.581921 c 0.261017,0 0.474576,0.213559 0.474576,0.474576 z m 0,-3.79661 c 0,0.261017 -0.213559,0.474576 -0.474576,0.474576 h -1.581921 c -0.261017,0 -0.474577,-0.213559 -0.474577,-0.474576 V 3.00565 c 0,-0.261017 0.21356,-0.474577 0.474577,-0.474577 h 1.581921 c 0.261017,0 0.474576,0.21356 0.474576,0.474577 z" />
</svg>
