<?xml version="1.0" encoding="UTF-8" standalone="no"?>
<svg
   xmlns:dc="http://purl.org/dc/elements/1.1/"
   xmlns:cc="http://creativecommons.org/ns#"
   xmlns:rdf="http://www.w3.org/1999/02/22-rdf-syntax-ns#"
   xmlns:svg="http://www.w3.org/2000/svg"
   xmlns="http://www.w3.org/2000/svg"
   height="16.221191"
   width="20.859747"
   id="svg4"
   version="1.1"
   viewBox="0 0 20.859747 16.221191">
  <metadata
     id="metadata10">
    <rdf:RDF>
      <cc:Work
         rdf:about="">
        <dc:format>image/svg+xml</dc:format>
        <dc:type
           rdf:resource="http://purl.org/dc/dcmitype/StillImage" />
        <dc:title></dc:title>
      </cc:Work>
    </rdf:RDF>
  </metadata>
  <defs
     id="defs8" />
  <path
     style="fill:#666666;fill-opacity:1;stroke-width:0.03621205"
     id="path2"
     d="M 10.153315,4.208202 3.4768994,9.707001 v 5.934793 a 0.57939275,0.57939275 0 0 0 0.5793928,0.579392 l 4.057922,-0.0105 a 0.57939275,0.57939275 0 0 0 0.5764957,-0.579393 v -3.465855 a 0.57939275,0.57939275 0 0 1 0.5793928,-0.579393 h 2.3175713 a 0.57939275,0.57939275 0 0 1 0.579393,0.579393 v 3.46332 a 0.57939275,0.57939275 0 0 0 0.579393,0.581204 l 4.056473,0.01123 A 0.57939275,0.57939275 0 0 0 17.382326,15.6418 V 9.703024 L 10.707359,4.208208 a 0.44142485,0.44142485 0 0 0 -0.554044,0 z M 20.699349,7.945647 17.672022,5.450275 V 0.434545 A 0.43454456,0.43454456 0 0 0 17.237478,0 H 15.209603 A 0.43454456,0.43454456 0 0 0 14.775058,0.434545 V 3.063901 L 11.532994,0.396522 a 1.7381783,1.7381783 0 0 0 -2.2089354,0 L 0.15770318,7.945647 A 0.43454456,0.43454456 0 0 0 0.0997639,8.557631 l 0.9234072,1.122573 a 0.43454456,0.43454456 0 0 0 0.6123457,0.05903 L 10.153315,2.723512 a 0.44142485,0.44142485 0 0 1 0.554044,0 l 8.51816,7.015722 a 0.43454456,0.43454456 0 0 0 0.611984,-0.05794 L 20.76091,8.55872 A 0.43454456,0.43454456 0 0 0 20.69935,7.94565 Z" />
</svg>
