<?xml version="1.0" encoding="UTF-8" standalone="no"?>
<svg
   xmlns:dc="http://purl.org/dc/elements/1.1/"
   xmlns:cc="http://creativecommons.org/ns#"
   xmlns:rdf="http://www.w3.org/1999/02/22-rdf-syntax-ns#"
   xmlns:svg="http://www.w3.org/2000/svg"
   xmlns="http://www.w3.org/2000/svg"
   width="29.96693"
   height="27.176401"
   viewBox="0 0 7.9287502 7.1904231"
   version="1.1"
   id="svg8">
  <defs
     id="defs2" />
  <metadata
     id="metadata5">
    <rdf:RDF>
      <cc:Work
         rdf:about="">
        <dc:format>image/svg+xml</dc:format>
        <dc:type
           rdf:resource="http://purl.org/dc/dcmitype/StillImage" />
        <dc:title></dc:title>
      </cc:Work>
    </rdf:RDF>
  </metadata>
  <g
     style="fill:#0f101e;fill-opacity:1"
     id="layer1"
     transform="translate(272.47677,26.245239)">
    <g
       style="fill:#0f101e;fill-opacity:1"
       id="g862"
       transform="matrix(0.02861871,0,0,0.02861871,-264.67884,-25.494134)">
      <path
         style="stroke-width:0.21343355;fill:#0f101e;fill-opacity:1"
         d="M -207.73438,90.556807 -268.2994,135.3245 c -4.55959,3.3703 -5.53795,9.78574 -2.18427,14.32284 l 52.6465,71.22405 c 3.35366,4.5371 9.77387,5.48377 14.33345,2.11347 l 60.56502,-44.76769 c 4.55959,-3.37029 5.53795,-9.78574 2.18427,-14.32283 l -52.64648,-71.224053 c -3.3537,-4.537107 -9.77389,-5.483773 -14.33347,-2.11348 z m 30.46345,104.565433 c -3.04547,2.2511 -7.31564,1.62147 -9.55566,-1.40898 -2.24,-3.03045 -1.58927,-7.29746 1.4562,-9.54857 3.04544,-2.2511 7.31562,-1.62146 9.55563,1.40899 2.24001,3.03045 1.58927,7.29747 -1.45617,9.54856 z m 16.61467,-40.87469 c 0.83525,1.12998 0.58951,2.74131 -0.54608,3.58071 l -56.43558,41.71534 c -1.1356,0.83939 -2.74812,0.60162 -3.58337,-0.52837 l -39.48486,-53.41803 c -0.83526,-1.12999 -0.58953,-2.74131 0.54607,-3.58071 l 56.43558,-41.71534 c 1.13559,-0.839395 2.74811,-0.601635 3.58337,0.52836 z"
         id="path815" />
      <path
         style="stroke-width:0.20552453;fill:#0f101e;fill-opacity:1"
         d="M 1.3180424,132.76775 -32.851835,101.91536 c -4.042421,-3.649945 -10.283396,-3.331526 -13.933345,0.71089 l -57.29732,63.45834 c -3.64994,4.04242 -3.33153,10.2834 0.71089,13.93335 l 34.169877,30.85239 c 4.042418,3.64995 10.283398,3.33153 13.933345,-0.71089 L 2.0289263,146.7011 c 3.6499524,-4.04242 3.3315341,-10.2834 -0.7108839,-13.93335 z m -83.1972264,57.79498 c -2.700033,-2.4379 -2.911817,-6.58888 -0.473928,-9.28891 2.437886,-2.70002 6.588862,-2.91181 9.288895,-0.47392 2.700028,2.43789 2.911818,6.58887 0.473931,9.2889 -2.437889,2.70003 -6.588867,2.91181 -9.288898,0.47393 z m 31.960204,-1.04857 c -0.909043,1.00679 -2.476551,1.08677 -3.483341,0.17773 L -83.911137,162.1451 c -1.00679,-0.90905 -1.08676,-2.47655 -0.177721,-3.48334 L -41.115869,111.068 c 0.909044,-1.00679 2.476541,-1.08675 3.483334,-0.17772 l 30.5088163,27.54679 c 1.0067935,0.90903 1.0867669,2.47654 0.177727,3.48332 z"
         id="path837" />
      <path
         style="stroke-width:0.26458332;fill:#0f101e;fill-opacity:1"
         d="M -57.452387,-26.245239 H -184.45238 c -7.01146,0 -12.7,5.688542 -12.7,12.7 v 84.666675 c 0,7.01145 5.68854,12.7 12.7,12.7 h 50.79999 l -4.23333,12.7 h -19.05 c -3.51896,0 -6.35,2.83104 -6.35,6.350004 0,3.51895 2.83104,6.35 6.35,6.35 h 71.966663 c 3.51896,0 6.35,-2.83105 6.35,-6.35 0,-3.518964 -2.83104,-6.350004 -6.35,-6.350004 h -19.049993 l -4.23334,-12.7 h 50.800003 c 7.011462,0 12.700002,-5.68855 12.700002,-12.7 v -84.666675 c 0,-7.011458 -5.68854,-12.7 -12.700002,-12.7 z m -4.23333,93.133335 H -180.21905 V -9.3119063 h 118.533333 z"
         id="path848" />
    </g>
  </g>
</svg>
