<?xml version="1.0" encoding="UTF-8"?>
<svg width="20.881" height="20.881" version="1.1" viewBox="0 0 20.881 20.881" xmlns="http://www.w3.org/2000/svg" xmlns:cc="http://creativecommons.org/ns#" xmlns:dc="http://purl.org/dc/elements/1.1/" xmlns:rdf="http://www.w3.org/1999/02/22-rdf-syntax-ns#">
 <metadata>
  <rdf:RDF>
   <cc:Work rdf:about="">
    <dc:format>image/svg+xml</dc:format>
    <dc:type rdf:resource="http://purl.org/dc/dcmitype/StillImage"/>
    <dc:title/>
   </cc:Work>
  </rdf:RDF>
 </metadata>
 <ellipse cx="10.529" cy="10.927" rx="7.2553" ry="7.2995" fill="#666"/>
 <path d="m10.441 0c-5.7676 0-10.441 4.673-10.441 10.441s4.673 10.441 10.441 10.441c5.7676 0 10.441-4.673 10.441-10.441s-4.673-10.441-10.441-10.441zm5.1277 7.1527-1.7134 8.0747c-0.1263 0.57255-0.4673 0.71148-0.94303 0.44204l-2.6102-1.9239-1.2588 1.2125c-0.13893 0.13893-0.25681 0.25681-0.52624 0.25681l0.18524-2.6565 4.8372-4.3699c0.2105-0.18524-0.04631-0.29049-0.32417-0.10525l-5.9781 3.7637-2.5765-0.8041c-0.55992-0.17682-0.57255-0.55992 0.11788-0.82936l10.066-3.8816c0.4673-0.1684 0.87567 0.11367 0.72411 0.82094z" stroke-width=".0421"/>
</svg>
