<?xml version="1.0" encoding="UTF-8"?>
<svg width="20.61" height="20.61" version="1.1" viewBox="0 0 20.61 20.61" xmlns="http://www.w3.org/2000/svg" xmlns:cc="http://creativecommons.org/ns#" xmlns:dc="http://purl.org/dc/elements/1.1/" xmlns:rdf="http://www.w3.org/1999/02/22-rdf-syntax-ns#">
 <metadata>
  <rdf:RDF>
   <cc:Work rdf:about="">
    <dc:format>image/svg+xml</dc:format>
    <dc:type rdf:resource="http://purl.org/dc/dcmitype/StillImage"/>
    <dc:title/>
   </cc:Work>
  </rdf:RDF>
 </metadata>
 <rect x="1.2226" y="1.3973" width="18.077" height="17.641" fill="#666"/>
 <path d="m18.402 0h-16.194c-1.2191 0-2.2082 0.9891-2.2082 2.2082v16.194c0 1.2191 0.9891 2.2082 2.2082 2.2082h16.194c1.2191 0 2.2082-0.9891 2.2082-2.2082v-16.194c0-1.2191-0.9891-2.2082-2.2082-2.2082zm-2.2496 7.3056c0.0092 0.12881 0.0092 0.26223 0.0092 0.39104 0 3.9886-3.0363 8.5845-8.5845 8.5845-1.7114 0-3.2985-0.49685-4.6327-1.3525 0.24383 0.0276 0.47845 0.0368 0.72688 0.0368 1.4123 0 2.7097-0.47845 3.7448-1.2881-1.3249-0.0276-2.4383-0.8971-2.8201-2.0932 0.46465 0.06901 0.88329 0.06901 1.3617-0.05521-1.3801-0.28063-2.4153-1.4952-2.4153-2.9627v-0.0368c0.40024 0.22542 0.86949 0.36344 1.3617 0.38184a3.0109 3.0109 0 0 1-1.3433-2.5119c0-0.56126 0.14722-1.0765 0.40944-1.5228 1.486 1.831 3.7172 3.0271 6.2199 3.1559-0.42785-2.0472 1.1041-3.708 2.9443-3.708 0.86949 0 1.6516 0.36344 2.2036 0.9523 0.68087-0.12881 1.3341-0.38184 1.9138-0.72688-0.22542 0.69927-0.69927 1.2881-1.3249 1.6608 0.60726-0.06441 1.1961-0.23462 1.739-0.46925-0.40944 0.60266-0.9247 1.1363-1.5136 1.5642z" stroke-width=".046005"/>
</svg>
