<?xml version="1.0" encoding="UTF-8" standalone="no"?>
<svg
   xmlns:dc="http://purl.org/dc/elements/1.1/"
   xmlns:cc="http://creativecommons.org/ns#"
   xmlns:rdf="http://www.w3.org/1999/02/22-rdf-syntax-ns#"
   xmlns:svg="http://www.w3.org/2000/svg"
   xmlns="http://www.w3.org/2000/svg"
   height="23.55448"
   width="20.610168"
   id="svg4"
   version="1.1"
   viewBox="0 0 20.610168 23.55448">
  <metadata
     id="metadata10">
    <rdf:RDF>
      <cc:Work
         rdf:about="">
        <dc:format>image/svg+xml</dc:format>
        <dc:type
           rdf:resource="http://purl.org/dc/dcmitype/StillImage" />
        <dc:title></dc:title>
      </cc:Work>
    </rdf:RDF>
  </metadata>
  <defs
     id="defs8" />
  <path
     style="fill:#666666;fill-opacity:1;stroke-width:0.04600484"
     id="path2"
     d="m 14.427119,13.985472 c -1.320339,0 -1.955206,0.736078 -4.122034,0.736078 -2.1668283,0 -2.7970947,-0.736078 -4.1220342,-0.736078 C 2.7694915,13.985472 0,16.754964 0,20.168523 v 1.177724 c 0,1.219128 0.98910412,2.208232 2.2082324,2.208232 H 18.401937 c 1.219128,0 2.208232,-0.989104 2.208232,-2.208232 v -1.177724 c 0,-3.413559 -2.769491,-6.183051 -6.18305,-6.183051 z m 3.974818,7.360775 H 2.2082324 v -1.177724 c 0,-2.189831 1.7849879,-3.974818 3.9748184,-3.974818 0.6716707,0 1.7619855,0.736077 4.1220342,0.736077 2.37845,0 3.445762,-0.736077 4.122034,-0.736077 2.18983,0 3.974818,1.784987 3.974818,3.974818 z m -8.096852,-8.096852 c 3.657385,0 6.624697,-2.967313 6.624697,-6.6246977 C 16.929782,2.9673123 13.96247,0 10.305085,0 6.6476998,0 3.6803874,2.9673123 3.6803874,6.6246973 c 0,3.6573847 2.9673124,6.6246977 6.6246976,6.6246977 z m 0,-11.0411626 c 2.433656,0 4.416465,1.9828088 4.416465,4.4164649 0,2.4336562 -1.982809,4.4164647 -4.416465,4.4164647 -2.4336564,0 -4.4164651,-1.9828085 -4.4164651,-4.4164647 0,-2.4336561 1.9828087,-4.4164649 4.4164651,-4.4164649 z" />
</svg>
