<?xml version="1.0" encoding="UTF-8"?>
<svg width="20.61" height="20.61" version="1.1" viewBox="0 0 20.61 20.61" xmlns="http://www.w3.org/2000/svg" xmlns:cc="http://creativecommons.org/ns#" xmlns:dc="http://purl.org/dc/elements/1.1/" xmlns:rdf="http://www.w3.org/1999/02/22-rdf-syntax-ns#">
 <metadata>
  <rdf:RDF>
   <cc:Work rdf:about="">
    <dc:format>image/svg+xml</dc:format>
    <dc:type rdf:resource="http://purl.org/dc/dcmitype/StillImage"/>
    <dc:title/>
   </cc:Work>
  </rdf:RDF>
 </metadata>
 <rect x="1.31" y="1.4846" width="18.077" height="18.427" fill="#666"/>
 <path d="m10.305 4.1772c-3.3446 0-6.0634 2.7189-6.068 6.0634 0 1.1455 0.32203 2.2634 0.9293 3.2249l0.14262 0.23002-0.61186 2.2358 2.2956-0.60266 0.22082 0.13341c0.9293 0.55206 1.9966 0.84649 3.0869 0.84649h0.0046c3.34 0 6.1324-2.7189 6.1324-6.0634 0-1.6194-0.69927-3.1421-1.8448-4.2877-1.1501-1.1501-2.6683-1.7804-4.2876-1.7804zm3.5654 8.6673c-0.15182 0.42784-0.87869 0.81429-1.2283 0.86489-0.57966 0.08741-1.0305 0.0414-2.1852-0.45545-1.8264-0.79128-3.0225-2.6315-3.1145-2.7511-0.09201-0.11961-0.74528-0.9891-0.74528-1.8862s0.46925-1.3387 0.63947-1.5228c0.16562-0.18402 0.36344-0.23002 0.48765-0.23002 0.11961 0 0.24383 0 0.34964 0.0046 0.11041 0.0046 0.26223-0.0414 0.40944 0.31283 0.15182 0.36344 0.51525 1.2605 0.56126 1.3525 0.046005 0.09201 0.078208 0.19782 0.013801 0.31743-0.34964 0.69927-0.72228 0.67167-0.53366 0.9937 0.70387 1.2099 1.4077 1.6286 2.4797 2.1668 0.18402 0.09201 0.28983 0.07821 0.39564-0.046 0.10581-0.11961 0.45545-0.53366 0.57506-0.71308 0.11961-0.18402 0.24382-0.15182 0.40944-0.09201s1.0627 0.50145 1.2467 0.59346c0.18402 0.09201 0.30363 0.13802 0.34964 0.21162 0.0414 0.08741 0.0414 0.45545-0.11041 0.87869zm4.5315-12.845h-16.194c-1.2191 0-2.2082 0.9891-2.2082 2.2082v16.194c0 1.2191 0.9891 2.2082 2.2082 2.2082h16.194c1.2191 0 2.2082-0.9891 2.2082-2.2082v-16.194c0-1.2191-0.9891-2.2082-2.2082-2.2082zm-8.1015 17.537c-1.2237 0-2.4245-0.30823-3.4872-0.88789l-3.869 1.0167 1.0351-3.7816c-0.63947-1.1041-0.9753-2.36-0.9753-3.6482 0.0046-4.0208 3.2755-7.2918 7.2964-7.2918 1.9506 0 3.7816 0.75908 5.1617 2.1392 1.3755 1.3801 2.2036 3.2111 2.2036 5.1617 0 4.0208-3.3446 7.2918-7.3654 7.2918z" stroke-width=".046005"/>
</svg>
